# xmcd
# 
# Track frame offsets:
#     187
#     19754
#     25052
#     37852
# 
# Disc length: 763
# 
# Revision: 2
# Processed by: cddbd v1.5.2PL0 Copyright (c) Steve Scherf et al.
# Submitted via: fre:ac v1.0.17
# 
DISCID=2002f904
DTITLE=山崎まさよし - 僕はここにいる
DYEAR=1998
DGENRE=J-Pop
TTITLE0=僕はここにいる
TTITLE1=mud skiffle track V
TTITLE2=お家へ帰ろう
TTITLE3=僕はここにいる(Backing track)
EXTD=
EXTT0=
EXTT1=
EXTT2=
EXTT3=
PLAYORDER=
